<?xml version="1.0" encoding="UTF-8" standalone="no"?>
<!-- Created with Inkscape (http://www.inkscape.org/) -->

<svg
   version="1.1"
   id="svg2"
   width="3266.6667"
   height="3266.6667"
   viewBox="0 0 3266.6667 3266.6667"
   sodipodi:docname="vecteezy_car-top-view-vector-travel-above-white-background-road_7095846.eps"
   xmlns:inkscape="http://www.inkscape.org/namespaces/inkscape"
   xmlns:sodipodi="http://sodipodi.sourceforge.net/DTD/sodipodi-0.dtd"
   xmlns="http://www.w3.org/2000/svg"
   xmlns:svg="http://www.w3.org/2000/svg">
  <defs
     id="defs6" />
  <sodipodi:namedview
     id="namedview4"
     pagecolor="#ffffff"
     bordercolor="#000000"
     borderopacity="0.25"
     inkscape:showpageshadow="2"
     inkscape:pageopacity="0.0"
     inkscape:pagecheckerboard="0"
     inkscape:deskcolor="#d1d1d1" />
  <g
     id="g8"
     inkscape:groupmode="layer"
     inkscape:label="ink_ext_XXXXXX"
     transform="matrix(1.3333333,0,0,-1.3333333,0,3266.6667)">
    <g
       id="g10"
       transform="scale(0.1)">
      <path
         d="M 24500,0 H 0 V 24500 H 24500 V 0"
         style="fill:#ffffff;fill-opacity:1;fill-rule:nonzero;stroke:none"
         id="path12" />
      <path
         d="m 22226.6,12572.3 -16.3,237.8 -17.8,216.9 -18.6,203.6 -21.4,199.2 -24.1,201.8 -26.3,212.3 -33.2,266.4 -20,141.4 -6.4,59.6 -21.8,153.2 -21.4,133.2 -23.2,118.2 -25,109.1 -27.7,105.5 -49.1,167.3 -52.7,169.1 -59.1,148.2 -8.2,24.1 -34.1,86 -34.1,75 -8.6,17.2 -30.5,60.1 -34.6,57.3 -37.7,55 -48.2,60.9 -47.3,54.5 -39.5,37.8 -8.7,8.6 -22.2,22.7 -35,32.3 -42.8,36.4 -32.2,27.3 -37.8,29.5 -42.3,30.5 -47.7,31.3 -53.2,31.4 -58.2,31.4 -61.4,31.8 -31.3,14.1 c -0.5,0.5 -63.2,36.8 -63.2,36.8 l -54.6,27.8 -5.4,2.7 -41,20 -44.5,18.6 -12.3,5 -45.5,17.8 -45.4,15.9 -38.2,13.6 -6.8,2.3 c -1.4,0.4 -48.7,18.2 -48.7,18.2 l -24.1,10 -25.4,9.1 -26.8,8.2 -28.2,7.2 -29.1,6.8 -30,6.4 -30,5.9 -30.5,5 -30.5,5.5 -30,4.5 -30,4.6 -30,4.1 -29.5,4.1 -29.1,3.6 -28.7,3.2 -28.2,2.7 -27.7,2.7 -27.7,1.8 -27.7,2.3 -28.2,1.8 -28.7,1.9 -29.5,1.8 -30.9,1.8 -32.3,1.8 -33.7,2.3 -35.9,2.3 -36.8,2.7 -38.2,2.7 -38.6,2.7 -39.6,3.2 -40,3.2 -40.5,2.7 95.1,-14.1 94.5,-14.5 94.6,-15.5 93.6,-15.9 93.2,-16.8 91.9,-18.2 90.9,-19.5 90,-21.9 88.2,-23.6 86.8,-25.5 85.5,-27.2 85,-28.2 84.1,-29.6 83.7,-30 83.2,-30.4 83.2,-30.9 62.7,-48.2 62.3,-49.1 61.4,-51.9 59.5,-55.4 57.8,-60.5 54.5,-66.8 51.9,-74.1 27.2,-46.4 21,-36.8 43.6,-92.8 40,-101.4 36.8,-109.1 34.1,-115.4 32.3,-120.1 30.5,-124.1 29.5,-126.4 28.7,-127.7 25,-105.5 24.5,-105.5 24.6,-105 24.5,-105 23.7,-105 23.1,-104.6 22.8,-104.1 21.8,-104.1 20.9,-103.7 20,-103.2 19.6,-103.6 18.1,-103.7 17.3,-104.1 16.4,-105 5,-32.8 c 0.9,-0.4 7.7,-6.8 7.7,-6.8 l 5,-11.3 4.6,-17.8 3.2,-25.4 2.2,-35.9 1.8,-47.8 0.5,-34.1 c 0,-0.9 13.6,-108.2 13.6,-108.2 l 12.3,-109.1 10.9,-110 9.1,-110.9 7.7,-111.4 5.5,-111.9 3.6,-111.8 0.9,-112.3 -0.9,-112.3 -3.6,-112.3 -5.5,-111.8 -7.7,-111.4 -9.1,-110.9 -10.9,-109.6 -12.3,-109.1 -13.1,-105 v -5.9 l -0.5,-122.8 -1.8,-5 -1.8,-4.5 -2.3,-5 -2.7,-4.6 -3.7,-4.1 -5,-3.6 -4.1,-2.3 -8.6,-57.7 -16.4,-104.6 -17.3,-104.1 -18.1,-104.1 -19.6,-103.2 -20,-103.7 -20.9,-103.6 -21.8,-104.1 -22.8,-104.2 -23.1,-104.5 -23.7,-105 -24.5,-105.1 -24.6,-105 -24.5,-105.5 -25,-105 -28.7,-127.7 -29.5,-126.4 -30.5,-124.1 -32.3,-120.5 -34.1,-115 -36.8,-109.1 -40,-101.9 -34.6,-73.2 -9,-19.5 -21,-36.8 -8.1,-12.8 -4.6,-7.7 -14.5,-25.5 -9.6,-14.1 -1.3,-1.8 -3.2,-4.5 -37.8,-54.1 -54.5,-66.4 -57.8,-60.5 -59.5,-55.4 -61.4,-51.9 -62.3,-49.5 -62.7,-47.7 -83.2,-31 -83.2,-30.9 -83.7,-30 -84.1,-29.5 -85,-28.2 -85.5,-27.3 -86.8,-25.5 -88.2,-23.6 -90,-21.4 -90.9,-20 -91.9,-18.2 -93.2,-16.8 -93.6,-15.9 -94.6,-15 -94.5,-14.5 -95.1,-14.6 40.5,3.2 40,2.7 39.6,3.2 38.6,2.7 38.2,2.8 36.8,2.7 35.9,2.3 33.7,2.2 32.3,2.3 30.9,1.8 29.5,1.8 28.7,1.9 28.2,1.8 27.7,1.8 27.7,2.3 27.7,2.2 28.2,3.2 28.7,3.2 29.1,3.2 29.5,4.1 30,4.1 30,4.5 30,5 30.5,5 30.5,5.5 30,5.9 30,5.9 29.1,6.8 28.2,7.7 26.8,8.2 25.4,8.7 24.1,10 48.7,18.2 45,15.9 45.4,16.3 45.5,17.3 12.3,5 44.5,19.1 41,19.6 5.4,2.7 54.6,28.2 62.7,35.9 c 0.5,0.4 31.8,14.5 31.8,14.5 l 41,21.9 c 0.4,0 20.4,10 20.4,10 l 58.2,31.3 53.2,31.9 47.7,30.9 42.3,30.4 37.8,30 32.2,26.9 42.8,36.3 35,32.3 30.9,31.4 39.5,38.2 47.3,54.1 48.2,60.9 37.7,55 34.6,57.3 30.5,60.4 8.6,16.9 34.1,75 34.1,85.9 67.3,172.8 52.7,168.6 35,121.4 0.9,2.8 13.2,43.1 27.7,105.5 25,109.6 23.2,118.2 21.4,132.7 21.8,153.7 26.4,200.5 33.2,266.4 26.3,212.3 24.1,201.9 21.4,199.6 18.6,203.6 17.8,216.4 16.3,238.3 18.2,322.3 -18.2,322.3"
         style="fill:#333333;fill-opacity:1;fill-rule:nonzero;stroke:none"
         id="path14" />
      <path
         d="m 21683.4,14933.2 -20,60.1 -20.9,58.1 -21.4,55.5 -22.3,52.3 -23.6,48.2 -25,43.2 -26.4,38.2 -28.2,32.7 -29.6,28.2 -30.9,23.6 -32.7,19.6 -33.6,15.9 -35.5,11.8 -36.4,9.1 -37.7,5.9 -39.1,3.6 -40,1 -40.9,-0.5 -41.4,-2.3 -42.3,-3.2 -42.3,-3.6 -42.2,-4.5 30.9,-99.6 31.3,-100.9 31.9,-101.9 31.8,-103.6 32.3,-106.9 32.7,-110.4 33.6,-114.2 34.6,-119.1 35.9,-125 35.5,-129.6 35.4,-134.1 33.7,-138.2 32.3,-141.4 29.1,-144.1 25.4,-146.4 20.9,-147.7 16.4,-149.2 11.8,-150.4 7.7,-151 5,-151.4 2.8,-152.3 1.3,-152.7 v -153.2 l -0.4,-152.8 0.4,-153.2 v -153.2 l -1.3,-152.3 -2.8,-152.3 -5,-151.9 -7.7,-150.9 -11.8,-150 -16.4,-149.2 -20.9,-148.2 -25.4,-146.4 -29.1,-144.1 -32.3,-141.4 -33.7,-138.2 -35.4,-134.1 -35.5,-129.6 -35.9,-124.5 -34.6,-119.1 -33.6,-114.6 -32.7,-110 -32.3,-106.9 -31.8,-104.1 -31.9,-101.8 -31.3,-100.5 -30.9,-100 42.2,-4.1 42.3,-4.1 42.3,-3.2 41.4,-2.2 40.9,-0.5 40,1.4 39.1,3.1 37.7,6 36.4,9.1 35.5,12.2 33.6,15.5 32.7,19.5 30.9,23.7 29.6,28.2 28.2,33.1 26.4,37.8 25,43.6 23.6,47.8 22.3,52.2 21.4,55.5 20.9,58.2 20,60.5 20,61.3 19.1,62.3 25,105 24.5,105.5 24.6,105 24.5,105.1 23.7,105 23.1,104.5 22.8,104.2 21.8,104.1 20.9,103.6 20,103.7 19.6,103.2 18.1,104.1 17.3,104.1 16.4,104.6 8.6,57.7 4.1,2.3 5,3.6 3.7,4.1 2.7,4.6 2.3,5 1.8,4.5 1.8,5 0.5,122.8 v 5.9 l 13.1,105 12.3,109.1 10.9,109.6 9.1,110.9 7.7,111.4 5.5,111.8 3.6,112.3 0.9,112.3 -0.9,112.3 -3.6,111.8 -5.5,111.9 -7.7,111.4 -9.1,110.9 -10.9,110 -12.3,109.1 -13.6,107.3 c 0,0.9 -0.5,35 -0.5,35 l -1.8,47.8 -2.2,35.9 -3.2,25.4 -4.6,17.8 -5,11.3 -6.8,6.4 c -0.9,0.4 -5.9,33.2 -5.9,33.2 l -16.4,105 -17.3,104.1 -18.1,103.7 -19.6,103.6 -20,103.2 -20.9,103.7 -21.8,104.1 -22.8,104.1 -23.1,104.6 -23.7,105 -24.5,105 -24.6,105 -24.5,105.5 -25,105.5 -19.1,61.8 -20,61.8"
         style="fill:#fcee21;fill-opacity:1;fill-rule:nonzero;stroke:none"
         id="path16" />
      <path
         d="m 20980,16188.9 -5,-13.6 -5.4,-15 -5.9,-15.5 -6.8,-17.2 -8.2,-19.2 -9.6,-20.4 -10.4,-23.2 -11.8,-24.5 -12.8,-25.5 -12.3,-25.9 -12.2,-25.9 -11.4,-25 -10,-23.7 -8.6,-21.3 -6.4,-18.7 -4.1,-16.8 -2.3,-15.5 -0.4,-14.1 1.4,-14 2.7,-13.7 4.5,-14.1 5.5,-15.4 7.3,-17.3 7.7,-18.2 9.1,-20 9.1,-20.5 9.5,-21.3 9.6,-22.3 9.5,-22.3 8.6,-22.7 8.2,-22.7 7.3,-22.3 6.4,-22.8 6.3,-22.2 5.9,-22.8 5.5,-22.2 5.5,-22.3 5,-22.7 42.2,4.5 42.3,3.6 42.3,3.2 41.4,2.3 40.9,0.5 40,-1 39.1,-3.6 37.7,-5.9 36.4,-9.1 35.5,-11.8 33.6,-15.9 32.7,-19.6 30.9,-23.6 29.6,-28.2 28.2,-32.7 26.4,-38.2 25,-43.2 23.6,-48.2 22.3,-52.3 21.4,-55.5 20.9,-58.1 20,-60.1 20,-61.8 19.1,-61.8 -28.7,127.7 -29.5,126.4 -30.5,124.1 -32.3,120.1 -34.1,115.4 -36.8,109.1 -40,101.4 -43.6,92.8 -21,36.8 -27.2,46.4 -51.9,74.1 -54.5,66.8 -57.8,60.5 -59.5,55.4 -61.4,51.9 -62.3,49.1 -62.7,48.2 -4.6,-13.2 -4.1,-13.7"
         style="fill:#ff0000;fill-opacity:1;fill-rule:nonzero;stroke:none"
         id="path18" />
      <path
         d="m 21683.4,9566.8 -20,-60.5 -20.9,-58.2 -21.4,-55.5 -22.3,-52.2 -23.6,-47.8 -25,-43.6 -26.4,-37.8 -28.2,-33.1 -29.6,-28.2 -30.9,-23.7 -32.7,-19.5 -33.6,-15.5 -35.5,-12.2 -36.4,-9.1 -37.7,-6 -39.1,-3.1 -40,-1.4 -40.9,0.5 -41.4,2.2 -42.3,3.2 -42.3,4.1 -42.2,4.1 -5,-22.3 -5.5,-22.7 -5.5,-22.3 -5.9,-22.3 -6.3,-22.7 -6.4,-22.3 -7.3,-22.7 -8.2,-22.7 -8.6,-22.3 -9.5,-22.8 -9.6,-21.8 -9.5,-21.3 -9.1,-21 -9.1,-19.5 -7.7,-18.6 -7.3,-16.9 -5.5,-15.4 -4.5,-14.6 -2.7,-13.6 -1.4,-13.6 0.4,-14.6 2.3,-15 4.1,-16.8 6.4,-19.1 8.6,-21.4 10,-23.6 11.4,-25 12.2,-25.5 12.3,-25.9 12.8,-25.9 11.8,-24.6 10.4,-22.7 9.6,-20.9 8.2,-18.6 6.8,-17.3 5.9,-15.9 5.4,-14.6 5,-14.1 4.1,-13.2 4.6,-13.1 62.7,47.7 62.3,49.5 61.4,51.9 59.5,55.4 57.8,60.5 54.5,66.4 37.8,54.1 3.2,4.5 1.3,1.8 24.1,39.6 4.6,7.7 8.1,12.8 29.1,56.8 22.3,46.4 -21.4,-46.9 34.6,73.2 40,101.9 36.8,109.1 34.1,115 32.3,120.5 30.5,124.1 29.5,126.4 28.7,127.7 -19.1,-62.3 -20,-61.3"
         style="fill:#ff0000;fill-opacity:1;fill-rule:nonzero;stroke:none"
         id="path20" />
      <path
         d="m 21033.2,9274 31.9,101.8 31.8,104.1 32.3,106.9 32.7,110 33.6,114.6 34.6,119.1 35.9,124.5 35.5,129.6 35.4,134.1 33.7,138.2 32.3,141.4 29.1,144.1 25.4,146.4 20.9,148.2 16.4,149.2 11.8,150 7.7,150.9 5,151.9 2.8,152.3 1.3,152.3 v 153.2 l -0.4,153.2 0.4,152.8 v 153.2 l -1.3,152.7 -2.8,152.3 -5,151.4 -7.7,151 -11.8,150.4 -16.4,149.2 -20.9,147.7 -25.4,146.4 -29.1,144.1 -32.3,141.4 -33.7,138.2 -35.4,134.1 -35.5,129.6 -35.9,125 -34.6,119.1 -33.6,114.2 -32.7,110.4 -32.3,106.9 -31.8,103.6 -31.9,101.9 -31.3,100.9 -30.9,99.6 -27.3,-12.8 -27.8,-13.2 -28.1,-12.7 -28.7,-13.6 -29.1,-13.7 -30.4,-14.5 -31.9,-14.6 -32.7,-15.4 -34.6,-16.4 -36.3,-16.8 -37.3,-17.3 -38.2,-17.3 -39.1,-17.2 -39.5,-16.9 -40.5,-16.8 -40.5,-15.9 -40.4,-15 -41.4,-14.1 -41.4,-13.6 -42.7,-13.2 -43.6,-12.7 -45.1,-12.3 -46.8,-12.3 -49.1,-11.8 -50.9,-11.8 -53.2,-11.9 -55,-11.8 -56.4,-11.8 -57.3,-11.8 -58.2,-11.8 -58.6,-11.8 -59.1,-11.9 20.5,-108.2 20,-110.5 20,-114.1 19.1,-120 17.7,-127.7 16.8,-137.8 15.5,-149.1 13.6,-163.2 11.8,-178.7 10,-191.8 8.2,-204.2 6.4,-213.2 5,-221.4 3.2,-227.3 1.8,-231.4 0.9,-232.8 -0.9,-233.2 -1.8,-231 -3.2,-227.3 -5,-221.4 -6.4,-213.7 -8.2,-203.7 -10,-192.3 -11.8,-178.6 -13.6,-162.8 -15.5,-149.6 -16.8,-137.3 -17.7,-127.7 -19.1,-120.5 -20,-114.1 -20,-110.5 -20.5,-108.2 59.1,-11.8 58.6,-11.8 58.2,-11.4 57.3,-11.8 56.4,-11.8 55,-11.8 53.2,-11.9 50.9,-11.8 49.1,-12.3 46.8,-11.8 45.1,-12.3 43.6,-12.7 42.7,-13.2 41.4,-13.6 41.4,-14.6 40.4,-15 40.5,-15.9 40.5,-16.3 39.5,-17.3 39.1,-17.3 38.2,-17.3 37.3,-17.2 36.3,-16.9 34.6,-15.9 32.7,-15.4 31.9,-15 30.4,-14.1 29.1,-14.1 28.7,-13.2 28.1,-13.2 27.8,-13.2 27.3,-12.7 30.9,100 31.3,100.5"
         style="fill:#333333;fill-opacity:1;fill-rule:nonzero;stroke:none"
         id="path22" />
      <path
         d="m 19754.8,7951 94.6,15 93.6,15.9 93.2,16.8 91.9,18.2 90.9,20 90,21.4 88.2,23.6 86.8,25.5 85.5,27.3 85,28.2 84.1,29.5 83.7,30 83.2,30.9 83.2,31 -4.6,13.1 -4.1,13.2 -5,14.1 -5.4,14.6 -5.9,15.9 -6.8,17.3 -8.2,18.6 -9.6,20.9 -10.4,22.7 -11.8,24.6 -12.8,25.9 -12.3,25.9 -12.2,25.5 -11.4,25 -10,23.6 -8.6,21.4 -6.4,19.1 -4.1,16.8 -2.3,15 -0.4,14.6 1.4,13.6 2.7,13.6 4.5,14.6 5.5,15.4 7.3,16.9 7.7,18.6 9.1,19.5 9.1,21 9.5,21.3 9.6,21.8 9.5,22.8 8.6,22.3 8.2,22.7 7.3,22.7 6.4,22.3 6.3,22.7 5.9,22.3 5.5,22.3 5.5,22.7 5,22.3 -27.3,12.7 -27.8,13.2 -28.1,13.2 -28.7,13.2 -29.1,14.1 -30.4,14.1 -31.9,15 -32.7,15.4 -34.6,15.9 -36.3,16.9 -37.3,17.2 -38.2,17.3 -39.1,17.3 -39.5,17.3 -40.5,16.3 -40.5,15.9 -40.4,15 -41.4,14.6 -41.4,13.6 -42.7,13.2 -43.6,12.7 -45.1,12.3 -46.8,11.8 -49.1,12.3 -50.9,11.8 -53.2,11.9 -55,11.8 -56.4,11.8 -57.3,11.8 -58.2,11.4 -58.6,11.8 -59.1,11.8 -122.3,-1.3 -122.8,-1 -122.2,-1.3 -122.8,-1.4 -122.3,-1.3 -122.7,-1 -122.3,-1.3 -122.8,-1.4 -297.3,18.2 -297.3,17.7 -295.6,17.3 -293.6,15.9 -291,15 -287.8,12.8 -283.2,11.3 -279.2,8.2 -273.7,5.9 -268.6,3.7 -265.1,1.3 -261.4,-0.4 -259.1,-1.9 -256.9,-2.7 -255.5,-3.6 -254.6,-3.7 -151.4,-1.8 -151.4,-1.8 -152.3,-2.3 -153.2,-2.2 -155,-3.2 -156.4,-3.7 -158.7,-5 -161.4,-5.4 -164.1,-6.4 -165.5,-7.7 -164.6,-8.6 -161.8,-9.6 -158.2,-10.5 -151.9,-11.3 -144.1,-12.3 -134.6,-13.2 -123.6,-13.6 -113.2,-14.6 -105,-15 -98.3,-15.4 -91.8,-15.9 -88.2,-16 -85,-16.3 -84.1,-16.8 -128.2,-40 -127.8,-40.5 -128.2,-40.5 -128.2,-40.4 -128.2,-40 -128.2,-40.5 -127.7,-40.5 -128.25,-40 -128.2,-40.4 -127.75,-40 -126.85,-39.6 -126.38,-38.2 -124.57,-37.7 -122.75,-35.9 -120.93,-34.1 -118.66,-31.9 -115.93,-29.5 -113.2,-27.7 -111.39,-25.9 -109.57,-24.6 -108.2,-23.2 -107.29,-22.3 -106.38,-21.8 -106.39,-21.4 -55.01,11.9 -57.74,11.3 -62.73,10.9 -70.47,10.9 -80.93,10.1 -93.65,9.1 -109.11,8.6 -127.3,7.3 -147.75,6.3 -165.49,5.5 -180.04,4.5 -191.39,5 -199.59,4.6 -204.58,5 -206.86,5.9 -205.94,7.3 -202.31,8.1 -196.41,9.6 -190.48,10.4 -183.22,11.4 -175.04,11.4 -165.03,11.8 -154.57,11.8 -142.75,11.4 -130.03,11.4 -118.66,10.4 -109.11,10.5 -101.38,10 -94.57,9.5 -90.01,9.6 -86.38,9.5 -85.47,9.6 14.09,-36 14.09,-35.9 13.64,-35 13.19,-34.5 12.28,-33.2 11.81,-32.3 11.36,-30.5 9.55,-29.1 9.1,-26.8 7.27,-25 6.37,-23.2 5.45,-21.3 4.55,-19.6 3.18,-17.7 2.27,-16.4 1.37,-14.5 v -13.2 l -0.46,-11.4 -1.82,-10.4 -2.72,-9.6 -4.1,-8.6 -5.45,-7.8 -6.82,-7.2 -8.19,-7.3 -9.54,-6.8 -10.91,-5.9 -12.73,-5.5 -15,-4.5 -16.37,-2.8 -18.64,-0.9 -20.91,0.9 -23.64,3.7 -25.46,5.9 -27.74,8.6 -29.55,10.9 -30.46,11.9 -31.36,13.6 -31.83,14.1 -31.82,14.5 -31.37,14.6 -30.92,14.1 -29.55,14.1 -29.55,13.6 -28.65,13.2 -28.63,13.2 -27.74,13.2 -28.18,12.7 -27.74,12.7 34.1,-22.3 31.83,-24 33.18,-25.1 36.83,-25.9 13.63,-9.1 40.47,-25.4 20,-10.9 16.37,-9.6 7.73,-4.5 5.91,-3.2 5.45,-2.7 31.37,-16.4 25.46,-12.7 9.09,-4.1 5,-2.8 43.65,-20.4 35.47,-14.6 40.91,-17.2 115.93,-47.8 129.11,-47.7 140.03,-47.7 149.12,-47.3 156.85,-47.8 162.3,-47.2 166.4,-47.3 167.75,-47.3 59.11,-7.7 58.64,-7.8 57.29,-7.2 56.37,-7.3 54.1,-6.8 51.37,-5.9 48.65,-6 45.01,-5 41.37,-4 38.19,-3.7 35.91,-3.2 35.01,-2.7 35.01,-2.3 35.92,-2.2 37.73,-2.3 40.46,-2.3 44.56,-2.7 47.73,-2.7 50.01,-2.8 51.37,-2.7 52.74,-2.3 52.74,-2.2 52.74,-1.9 51.37,-1.8 50.01,-0.9 48.19,-0.9 h 47.28 46.83 46.37 l 46.83,0.5 47.73,0.9 48.65,0.4 50.46,0.9 51.38,0.9 51.37,0.5 51.83,0.9 51.37,0.9 50.46,0.5 48.65,0.9 46.83,0.4 44.09,0.5 41.83,0.4 40.01,1 37.28,0.9 35.92,0.9 33.64,1.3 32.27,1.4 30.92,2.3 97.75,3.2 86.38,2.2 97.28,2.3 83.21,2.3 85.47,2.2 96.83,3.7 120.48,4.5 192.31,6.4 c 1.82,0 7.27,-0.5 7.27,-0.5 l 538.29,0.5 442.35,0.4 c 0.46,0 -2.27,4.1 -2.27,4.1 l -17.28,24.1 -15,21.4 -12.73,19.6 -10.01,15 c -0.9,1.8 -2.27,3.6 -2.27,3.6 l -10.9,13.2 -3.19,3.6 -6.36,6.4 -33.65,34.1 -19.09,20 -13.18,15 -15.01,16.8 -6.36,7.7 -21.37,27.8 -10.46,15.9 c -0.46,0 -20.91,25.9 -20.91,25.9 l -22.73,29.5 -41.83,33.7 c -0.45,0 -10.91,5 -10.91,5 -0.45,0 -48.65,13.2 -48.65,13.2 l -33.64,5.4 -13.64,5.5 -1.82,8.2 10.47,11.3 23.63,14.6 36.83,17.7 51.82,21.8 63.65,24.6 75.02,27.3 83.65,29.1 90.92,31.3 95.93,32.8 100.02,33.6 101.38,33.6 129.12,43.2 129.11,42.8 128.67,42.7 128.2,42.7 127.75,42.3 127.3,42.3 126.4,42.3 125.9,41.8 124.6,41.4 123.2,40.4 121.4,39.6 118.2,38.2 114.6,35.9 110.9,33.2 106.4,30.4 101.3,27.3 95.5,23.2 92.3,20 93.2,16.8 96.4,14.1 103.2,11.8 112.3,9.1 125.5,7.8 140.9,5.9 159.6,5 173.2,4.1 180.9,2.2 183.7,1 180,-0.5 171.4,-2.3 157.3,-4.1 137.8,-5.9 112.3,-7.7 89.1,-10 69.1,-13.6 50.5,-17.8 34.5,-21.8 20.9,-27.3 9.6,-33.2 v -39.5 l -6.4,-46.8 -12.3,-52.8 -18.2,-57.3 -21.8,-60.4 -26.3,-62.3 -28.7,-63.2 -31.4,-61.8 -32.7,-60.1 -33.2,-56.3 -40.9,-52.3 -56.8,-48.2 -79.1,-43.6 -109.6,-38.7 -146.4,-33.6 -191.4,-27.3 -243.7,-21.4 -302.8,-15 -355,-9.1 -399.2,-4.5 -436.9,-0.5 -466,3.2 -488.7,5.5 -503.29,6.8 -511,7.7 -20.46,-6.4 c -0.46,0 -8.19,-30.4 -8.19,-30.4 l -3.18,-13.2 -6.82,-20.5 -9.09,-35.9 -5.46,-15.4 -10.45,-50.9 -9.09,-49.6 4.54,-36.4 10.46,-26.3 10,-28.2 13.65,-35 6.35,-19.1 12.73,-33.7 6.82,-22.2 326.88,0.4 561,1.4 576.5,1.3 618.7,1.9 688.4,1.8 146.8,0.4 h 21.4 15.4 l 148.7,-0.4 632.4,-1.8 550.5,-1 381.9,9.1 446.9,10.9 540.1,14.1 147.3,3.7 193.7,4.5 340.5,7.3 364.2,7.7 256.8,5.5 104.6,2.3 351.9,6.8 362.3,6.8 48.2,0.9 c 4.1,0 91.4,0.5 91.4,0.5 l 381.9,2.7 90,0.9 c 0.9,0 5,-0.9 5,-0.9 l 41.8,-6.4 43.2,-5.4 44.1,-5.5 45,-5 8.2,-0.9 65.5,-7.7 39.1,-5 32.7,-4.6 32.8,-4.5 32.2,-4.1 32.8,-3.2 33.2,-2.7 34.1,-2.7 34.1,-2.3 34.5,-2.3 35,-2.3 35.5,-2.2 35.9,-1.9 36.8,-1.8 37.8,-1.3 39.5,-1.4 40.5,-0.9 42.2,-0.5 43.7,0.5 45.4,0.9 46.4,0.9 46.9,1.8 46.3,1.4 45.9,2.3 45,1.8 43.2,1.8 41.4,1.8 40,1.8 39.1,1.9 39.1,1.8 39.6,1.8 40.4,2.3 42.3,2.2 45,2.3 47.8,2.7 50,2.8 52.7,2.7 54.6,3.2 55.9,3.6 56.8,3.2 57.7,3.6 58.2,3.2 95.1,14.6 94.5,14.5"
         style="fill:#efdb22;fill-opacity:1;fill-rule:nonzero;stroke:none"
         id="path24" />
      <path
         d="m 19670.3,9736.8 20,114.1 19.1,120.5 17.7,127.7 16.8,137.3 15.5,149.6 13.6,162.8 11.8,178.6 10,192.3 8.2,203.7 6.4,213.7 5,221.4 3.2,227.3 1.8,231 0.9,233.2 -0.9,232.8 -1.8,231.4 -3.2,227.3 -5,221.4 -6.4,213.2 -8.2,204.2 -10,191.8 -11.8,178.7 -13.6,163.2 -15.5,149.1 -16.8,137.8 -17.7,127.7 -19.1,120 -20,114.1 -20,110.5 -20.5,108.2 -122.3,1.4 -122.8,1.3 -122.2,1.4 -122.8,0.9 -122.3,1.4 -122.7,1.3 -122.3,1.4 -122.8,0.9 -297.3,-18.2 -297.3,-17.7 -295.6,-17.3 -293.6,-15.9 -291,-14.5 -287.8,-13.2 -283.2,-10.9 -279.2,-8.7 -273.7,-5.9 -268.6,-3.2 -265.1,-1.3 h -261.4 l -259.1,1.8 -256.9,2.7 -255.5,3.7 -254.6,3.6 -151.4,1.8 -151.4,1.8 -152.3,2.3 -153.2,2.7 -155,3.2 -156.4,3.7 -158.7,4.5 -161.4,5.5 -164.1,6.8 -165.5,7.3 -164.6,8.6 -161.8,9.5 -158.2,10.5 -151.9,11.4 -144.1,12.2 -134.6,13.2 -123.6,13.7 -113.2,14.5 -105,15 -98.3,15.5 -91.8,15.9 -88.2,16.4 -85,16.3 -84.1,16.4 -3.2,-36.4 -3.6,-35.9 -3.2,-36.4 -3.6,-36.8 -3.2,-36.4 -3.7,-37.3 -3.6,-37.2 -3.2,-37.3 -3.6,-38.2 -3.7,-42.3 -4,-50 -4.1,-61.4 -4.1,-76.8 -4.6,-96.4 -5,-118.6 -5.4,-145.1 -5.9,-175.5 -6,-201.8 -5.9,-224.6 -5.9,-243.7 -4.5,-258.7 -4.1,-269.6 -2.3,-277.7 -0.9,-281 0.9,-281.4 2.3,-277.3 4.1,-270.1 4.5,-258.7 5.9,-243.2 5.9,-224.6 6,-201.8 5.9,-175.5 5.4,-145.5 5,-118.7 4.6,-95.9 4.1,-76.8 4.1,-61.9 4,-50 3.7,-42.3 3.6,-37.7 3.2,-37.7 3.6,-37.3 3.7,-36.8 3.2,-36.8 3.6,-36.4 3.2,-36.4 3.6,-36.4 3.2,-36.3 84.1,16.8 85,16.3 88.2,16 91.8,15.9 98.3,15.4 105,15 113.2,14.6 123.6,13.6 134.6,13.2 144.1,12.3 151.9,11.3 158.2,10.5 161.8,9.6 164.6,8.6 165.5,7.7 164.1,6.4 161.4,5.4 158.7,5 156.4,3.7 155,3.2 153.2,2.2 152.3,2.3 151.4,1.8 151.4,1.8 254.6,3.7 255.5,3.6 256.9,2.7 259.1,1.9 261.4,0.4 265.1,-1.3 268.6,-3.7 273.7,-5.9 279.2,-8.2 283.2,-11.3 287.8,-12.8 291,-15 293.6,-15.9 295.6,-17.3 297.3,-17.7 297.3,-18.2 122.8,1.4 122.3,1.3 122.7,1 122.3,1.3 122.8,1.4 122.2,1.3 122.8,1 122.3,1.3 20.5,108.2 20,110.5"
         style="fill:#fcee21;fill-opacity:1;fill-rule:nonzero;stroke:none"
         id="path26" />
      <path
         d="m 17929,8360.6 c 157.7,10.4 317,17.1 473.4,41.6 75.4,11.9 168.8,23.9 197.1,107.2 23.5,69.1 3.2,151.3 -14.1,219.7 -18.7,73.3 -41.5,145.6 -69.8,215.8 -28.1,69.8 -61.3,145 -128.3,185.4 -67.8,40.9 -153.6,53.6 -230.6,65.2 -73.5,11 -148,17.6 -222.1,23 -331.9,24.4 -665.4,26.5 -998.1,27.2 -326,0.7 -651.9,-3.7 -977.7,-9.7 -315.8,-5.8 -632,-12.8 -947.4,-30.4 -80.1,-4.4 -160.3,-8.7 -239.9,-18.6 -79.1,-9.9 -163.4,-19.9 -232.4,-63.1 -62.9,-39.4 -105.2,-108.1 -141.2,-171.2 -40.5,-71.1 -74.7,-145.5 -108.5,-219.8 -30.5,-67.1 -65.1,-135 -89.6,-204.4 -13.5,-38 -22.2,-76 0.6,-111.3 19.9,-30.8 51.2,-50.3 85.6,-63.6 65.3,-25.4 3559.2,2.2 3643,7"
         style="fill:#333333;fill-opacity:1;fill-rule:nonzero;stroke:none"
         id="path28" />
      <path
         d="m 9207.38,8452 -1.36,-28.6 -0.91,-28.7 -1.36,-28.2 -1.37,-28.6 -0.91,-28.6 -1.36,-28.7 511,-7.7 503.29,-6.8 488.7,-5.5 466,-3.2 436.9,0.5 399.2,4.5 355,9.1 302.8,15 243.7,21.4 191.4,27.3 146.4,33.6 109.6,38.7 79.1,43.6 56.8,48.2 40.9,52.3 33.2,56.3 32.7,60.1 31.4,61.8 28.7,63.2 26.3,62.3 21.8,60.4 18.2,57.3 12.3,52.8 6.4,46.8 v 39.5 l -9.6,33.2 -20.9,27.3 -34.5,21.8 -50.5,17.8 -69.1,13.6 -89.1,10 -112.3,7.7 -137.8,5.9 -157.3,4.1 -171.4,2.3 -180,0.5 -183.7,-1 -180.9,-2.2 -173.2,-4.1 -159.6,-5 -140.9,-5.9 -125.5,-7.8 -112.3,-9.1 -103.2,-11.8 -96.4,-14.1 -93.2,-16.8 -92.3,-20 -95.5,-23.2 -101.3,-27.3 -106.4,-30.4 -110.9,-33.2 -114.6,-35.9 -118.2,-38.2 -121.4,-39.6 -123.2,-40.4 -124.6,-41.4 -125.9,-41.8 -126.4,-42.3 -127.3,-42.3 -127.75,-42.3 -128.2,-42.7 -128.67,-42.7 -129.11,-42.8 -129.12,-43.2 -1.36,-28.1 -0.91,-28.7"
         style="fill:#333333;fill-opacity:1;fill-rule:nonzero;stroke:none"
         id="path30" />
      <path
         d="m 9202.38,16161.6 1.37,-28.1 1.36,-28.7 0.91,-28.6 1.36,-28.2 0.91,-28.6 0.91,-15.5 0.45,-13.2 129.12,-42.7 17.73,-5.9 111.38,-37.3 128.67,-42.7 128.2,-42.3 127.75,-42.8 127.3,-42.2 126.4,-41.9 125.9,-41.8 124.6,-41.4 123.2,-40.9 121.4,-39.5 118.2,-37.8 114.6,-35.9 110.9,-33.6 106.4,-30.5 101.3,-27.3 95.5,-23.2 92.3,-20 93.2,-16.8 96.4,-14.1 103.2,-11.3 112.3,-9.6 125.5,-7.7 140.9,-5.9 159.6,-5 173.2,-3.7 180.9,-2.2 183.7,-0.9 180,0.4 171.4,2.3 157.3,4.1 137.8,5.4 112.3,7.8 89.1,10.4 69.1,13.6 50.5,17.3 34.5,21.8 20.9,27.3 9.6,33.2 v 39.6 l -6.4,46.8 -12.3,52.7 -18.2,57.3 -21.8,60.5 -26.3,62.7 -28.7,62.8 -31.4,61.8 -32.7,60 -33.2,56.4 -40.9,52.7 -56.8,48.2 -79.1,43.6 -109.6,38.7 -146.4,33.2 -191.4,27.7 -243.7,21.4 -302.8,14.5 -355,9.6 -399.2,4.1 -436.9,0.4 -466,-3.2 -488.7,-5 -503.29,-7.2 -511,-7.8 1.36,-28.6 0.91,-28.7"
         style="fill:#333333;fill-opacity:1;fill-rule:nonzero;stroke:none"
         id="path32" />
      <path
         d="m 10949.1,9467.2 -3.2,36.4 -3.6,36.4 -3.2,36.8 -3.7,36.8 -3.6,37.3 -3.2,37.7 -3.6,37.7 -3.7,42.3 -4,50 -4.1,61.9 -4.1,76.8 -4.6,95.9 -5,118.7 -5.4,145.5 -5.9,175.5 -6,201.8 -5.9,224.6 -5.9,243.2 -4.5,258.7 -4.1,270.1 -2.3,277.3 -0.9,281.4 0.9,281 2.3,277.7 4.1,269.6 4.5,258.7 5.9,243.7 5.9,224.6 6,201.8 5.9,175.5 5.4,145.1 5,118.6 4.6,96.4 4.1,76.8 4.1,61.4 4,50 3.7,42.3 3.6,38.2 3.2,37.3 3.6,37.2 3.7,37.3 3.2,36.4 3.6,36.8 3.2,36.4 3.6,35.9 3.2,36.4 -128.2,40.4 -127.8,40.5 -128.2,40 -128.2,40.5 -128.2,40.4 -128.2,40 -127.7,40.5 -128.25,40.5 -128.2,40 -127.75,40 -126.85,39.5 -126.38,38.7 c -0.46,0 -124.57,37.3 -124.57,37.3 l -122.75,35.9 -120.93,34.1 -118.66,31.8 -115.93,30 -113.2,27.7 -111.39,25.5 -109.57,24.5 -108.2,23.2 -107.29,22.3 -106.38,21.8 -106.39,21.4 -28.64,-66.8 -28.19,-67.3 -28.64,-67.7 -28.19,-69.2 -27.73,-70 -27.73,-71.3 -27.28,-73.2 -27.28,-75.1 -26.36,-77.7 -26.83,-83.2 -27.73,-91.8 -29.1,-103.7 -31.37,-118.7 -34.09,-136.8 -37.28,-157.7 -41.38,-182.4 -46.37,-209.5 -48.19,-233.7 -47.74,-254.6 -45,-271.9 -39.56,-285 -31.37,-296 -20.91,-302.3 -7.73,-306 7.73,-306 20.91,-302.8 31.37,-295.5 39.56,-285.5 45,-271.8 47.74,-254.2 48.19,-234.1 46.37,-209.6 41.38,-182.3 37.28,-157.8 34.09,-136.8 31.37,-118.2 29.1,-103.7 27.73,-91.8 26.83,-83.2 26.36,-77.7 27.28,-75.5 27.28,-73.2 27.73,-71.4 27.73,-70 28.19,-68.6 28.64,-67.8 28.19,-67.3 28.64,-67.3 106.39,21.4 106.38,21.8 107.29,22.3 108.2,23.2 109.57,24.6 111.39,25.9 113.2,27.7 115.93,29.5 118.66,31.9 120.93,34.1 122.75,35.9 124.57,37.7 126.38,38.2 126.85,39.6 127.75,40 128.2,40.4 128.25,40 127.7,40.5 128.2,40.5 128.2,40 128.2,40.4 128.2,40.5 127.8,40.5 128.2,40 -3.2,36.3 -3.6,36.4"
         style="fill:#333333;fill-opacity:1;fill-rule:nonzero;stroke:none"
         id="path34" />
      <path
         d="m 8850.04,16615.4 -15,-21.9 -12.73,-19.5 -12.28,-18.6 -1.36,-1.9 -11.82,-15.4 -19.09,-20.5 -20.01,-20.9 -33.64,-37.7 -12.73,-14.6 -27.28,-35.9 -20,-27.3 -1.82,-2.2 -34.1,-40.5 -18.18,-20.9 c -0.45,-0.5 -29.55,-15.5 -29.55,-15.5 l -23.64,-9.5 -40.01,-7.3 -25.01,-2.7 -13.64,-5.9 -1.82,-8.2 10.47,-11.4 23.63,-14.5 36.83,-17.8 51.82,-21.3 63.65,-24.6 75.02,-27.3 83.65,-29.5 90.92,-31.4 95.93,-32.7 100.02,-33.2 101.38,-34.1 -0.45,13.2 -0.91,15.5 -0.91,28.6 -1.36,28.2 -0.91,28.6 -1.36,28.7 -1.37,28.1 -0.91,28.7 -1.36,28.6 -20,9.1 -9.55,45 -12.73,58.2 -10.01,66.9 -2.72,69.5 15.46,64.6 0.45,2.2 10.45,34.6 15.92,51.8 6.36,21.9 3.64,13.1 2.73,10 5.91,22.8 5.45,20 6.37,27.7 5.91,25 8.18,35 4.1,18.6 0.9,3.2 1.82,7.8 5,18.1 10.91,39.6 5.91,21.4 12.28,49.1 9.55,38.6 10,41.4 4.09,15.4 c -0.45,0 10.46,42.3 10.46,42.3 l 9.54,40 8.64,36.4 5,21.4 5.46,25 4.09,18.2 1.36,6.8 c 0.46,1.8 1.37,4.5 1.37,4.5 l 3.19,10 4.54,14.1 6.36,22.3 8.64,30.4 5,17.3 5,20.5 2.73,11.8 4.09,19.1 4.55,23.2 2.72,23.2 0.92,19.5 -0.46,5.9 -0.91,8.2 -0.45,6.4 -3.64,8.2 -3.19,4.5 -4.99,3.2 -5.01,2.3 c -1.36,1.8 -4.09,5.4 -4.09,5.4 l -1.82,1.8 -6.82,5 -10,2.8 -4.54,-0.5 -11.82,-1.8 -5.46,-2.3 -14.09,-7.2 c -0.46,0 -15.46,-11.4 -15.46,-11.4 l -2.28,-1.8 -16.36,-16.4 -6.82,-8.6 -17.73,-26.9 -2.28,-3.6 -16.36,-30 -16.37,-33.2 -15.45,-35.5 -15,-36.8 -14.1,-36.8 -3.64,-9.5 -5.45,-13.2 c -0.46,-1.4 -5.46,-12.3 -5.46,-12.3 -0.91,-1.4 -22.28,-44.1 -22.28,-44.1 l -19.09,-38.2 -16.83,-35 -20,-40.9 -19.09,-36.4 -18.19,-34.5 -15.45,-31.4 c -0.46,-0.9 -6.83,-13.2 -6.83,-13.2 l -15.45,-32.7 -8.64,-18.2 -25.46,-55.9 -11.82,-26.9 -13.18,-30 -3.64,-7.2 -19.55,-41.4 -17.73,-35 c -0.45,-0.5 -13.63,-22.3 -13.63,-22.3 l -5.92,-10 -1.36,-1.8 -15.91,-23.2 -2.73,-3.6 -17.28,-24.1"
         style="fill:#1a1a1a;fill-opacity:1;fill-rule:nonzero;stroke:none"
         id="path36" />
      <path
         d="m 9172.37,7913.3 -6.35,19.1 -13.65,35 -10,28.2 -10.46,26.3 -4.54,36.4 9.09,49.6 10.45,50.9 5.46,15.4 9.09,35.9 6.82,20.5 3.18,13.2 7.73,30.4 c 0.46,0 20.92,6.4 20.92,6.4 l 1.36,28.7 0.91,28.6 1.37,28.6 1.36,28.2 0.91,28.7 1.36,28.6 0.91,28.7 1.36,28.1 -101.38,-33.6 -100.02,-33.6 -95.93,-32.8 -90.92,-31.3 -83.65,-29.1 -75.02,-27.3 -63.65,-24.6 -51.82,-21.8 -36.83,-17.7 -23.63,-14.6 -10.47,-11.3 1.82,-8.2 13.64,-5.5 33.64,-5.4 31.38,-5 16.82,-8.2 c 0.45,0 10.91,-5 10.91,-5 0.45,0 42.28,-33.7 42.28,-33.7 l 22.73,-29.5 20.45,-25.9 c 0.46,0 10.92,-15.9 10.92,-15.9 l 21.37,-27.8 6.36,-7.7 15.01,-16.8 13.18,-15 19.09,-20 33.65,-34.1 6.36,-6.4 3.19,-3.6 10.9,-13.2 1.37,-1.8 c 0.9,-1.8 10.91,-16.8 10.91,-16.8 l 12.73,-19.6 15,-21.4 17.28,-24.1 2.73,-4.1 15.45,-23.1 21.37,-34.1 17.73,-35 17.28,-35.5 5.91,-13.2 16.82,-37.7 8.18,-18.7 9.55,-20.9 c 0.45,0 15.91,-35.4 15.91,-35.4 l 8.64,-17.8 15.45,-33.2 6.37,-12.2 c 0.46,-0.5 15.91,-31.9 15.91,-31.9 l 18.19,-34.5 19.09,-36.4 2.28,-4.5 4.55,-9.1 13.17,-27.8 16.83,-34.5 15.46,-30.9 3.63,-7.7 13.64,-26.9 8.64,-17.2 5.46,-11.9 5.45,-13.6 3.64,-9.5 14.1,-36.9 15,-36.8 15.45,-35.5 16.37,-33.2 16.36,-29.5 2.28,-4.1 17.73,-26.8 6.82,-8.2 3.64,-4.1 12.72,-12.7 2.28,-1.8 14.09,-10.5 c 1.37,-0.9 15.46,-7.7 15.46,-7.7 l 5.46,-2.8 9.09,-1.3 c 0.45,0 2.73,-0.5 2.73,-0.5 l 11.37,1.8 9.54,5.5 c 0.45,0.5 4.55,5.5 4.55,5.5 1.36,1.3 6.82,4.1 6.82,4.1 l 4.99,3.6 3.19,4.1 3.64,8.2 1.36,14.5 0.46,5.9 -0.92,20 -2.72,22.8 -4.55,23.6 -4.09,18.6 -2.73,11.9 -5,20.4 -13.64,47.8 -6.36,22.7 -8.64,26.8 -1.36,5 -4.55,21.4 -5.46,25 -5,21.3 -8.64,36.9 -9.54,40 -9.1,35.9 -5.45,21.4 -10,41.3 -9.55,38.7 -4.1,15.4 -8.18,33.7 -5.91,21.3 -7.27,25.1 -7.73,29.5 -0.91,3.2 -8.18,34.1 -5.91,25.9 -6.82,30 -6.82,27.7 -5.45,20 -6.37,22.8 -3.18,10.4 -4.1,12.8 -6.82,22.2 -12.73,33.7"
         style="fill:#1a1a1a;fill-opacity:1;fill-rule:nonzero;stroke:none"
         id="path38" />
      <path
         d="m 4474.22,16494.9 -162.3,-47.3 -156.85,-47.3 -149.12,-47.7 -140.03,-47.3 -129.11,-47.7 -81.38,-34.1 -6.37,-2.3 -28.18,-11.8 -40.91,-16.8 -35.47,-15 -43.65,-20.5 -5,-2.7 -9.09,-4.1 -25.46,-12.3 -31.37,-16.4 -5.45,-3.1 -5.91,-3.2 -7.73,-4.1 -16.37,-9.6 -20,-10.9 -40.47,-25.9 -13.63,-8.6 -36.83,-25.9 -33.18,-25 -31.83,-24.1 -34.1,-22.8 27.74,12.8 28.18,13.1 27.74,12.8 28.63,13.2 28.65,13.6 29.55,13.6 29.55,13.7 30.92,14.1 31.37,14.5 31.82,14.6 31.83,14.5 31.36,13.2 30.46,12.3 29.55,10.4 27.74,8.7 25.46,6.3 23.64,3.2 20.91,1.4 18.64,-1.4 16.37,-2.7 15,-4.1 12.73,-5.5 10.91,-6.3 9.54,-6.8 8.19,-6.9 6.82,-7.7 5.45,-7.7 4.1,-8.7 2.72,-9.1 1.82,-10.4 0.46,-11.8 v -13.2 l -1.37,-14.6 -2.27,-15.9 -3.18,-18.2 -4.55,-19.5 -5.45,-20.9 -6.37,-23.2 -7.27,-25 -9.1,-27.3 -9.55,-28.6 -11.36,-31 -11.81,-31.8 -12.28,-33.6 -13.19,-34.6 -13.64,-35 -14.09,-35.4 -14.09,-36 85.47,9.6 86.38,9.1 90.01,9.5 94.57,10 101.38,10 109.11,10 118.66,11 130.03,10.9 142.75,11.3 154.57,11.9 165.03,11.8 175.04,11.8 183.22,10.9 190.48,10.5 196.41,9.5 202.31,8.6 205.94,6.9 206.86,5.9 204.58,5 199.59,5 191.39,4.5 180.04,5 165.49,5 147.75,6.4 127.3,7.7 109.11,8.2 93.65,9.5 80.93,10.1 70.47,10.4 62.73,11.4 57.74,11.3 55.01,11.4 106.39,-21.4 106.38,-21.8 107.29,-22.3 108.2,-23.2 109.57,-24.5 111.39,-25.5 113.2,-27.7 115.93,-30 118.66,-31.8 120.93,-34.1 122.75,-35.9 124.11,-37.3 c 0.46,0 126.84,-38.7 126.84,-38.7 l 126.85,-39.5 127.75,-40 128.2,-40 128.25,-40.5 127.7,-40.5 128.2,-40 128.2,-40.4 128.2,-40.5 128.2,-40 127.8,-40.5 128.2,-40.4 84.1,-16.4 85,-16.3 88.2,-16.4 91.8,-15.9 98.3,-15.5 105,-15 113.2,-14.5 123.6,-13.7 134.6,-13.2 144.1,-12.2 151.9,-11.4 158.2,-10.5 161.8,-9.5 164.6,-8.6 165.5,-7.3 164.1,-6.8 161.4,-5.5 158.7,-4.5 156.4,-3.7 155,-3.2 153.2,-2.7 152.3,-2.3 151.4,-1.8 151.4,-1.8 254.6,-3.6 255.5,-3.7 256.9,-2.7 259.1,-1.8 h 261.4 l 265.1,1.3 268.6,3.2 273.7,5.9 279.2,8.7 283.2,10.9 287.8,13.2 291,14.5 293.6,15.9 295.6,17.3 297.3,17.7 297.3,18.2 122.8,-0.9 122.3,-1.4 122.7,-1.3 122.3,-1.4 122.8,-0.9 122.2,-1.4 122.8,-1.3 122.3,-1.4 59.1,11.9 58.6,11.8 58.2,11.8 57.3,11.8 56.4,11.8 55,11.8 53.2,11.9 50.9,11.8 49.1,11.8 46.8,12.3 45.1,12.3 43.6,12.7 42.7,13.2 41.4,13.6 41.4,14.1 40.4,15 40.5,15.9 40.5,16.8 39.5,16.9 39.1,17.2 38.2,17.3 37.3,17.3 36.3,16.8 34.6,16.4 32.7,15.4 31.9,14.6 30.4,14.5 29.1,13.7 28.7,13.6 28.1,12.7 27.8,13.2 27.3,12.8 -5,22.7 -5.5,22.3 -5.5,22.2 -5.9,22.8 -6.3,22.2 -6.4,22.8 -7.3,22.3 -8.2,22.7 -8.6,22.7 -9.5,22.3 -9.6,22.3 -9.5,21.3 -9.1,20.5 -9.1,20 -7.7,18.2 -7.3,17.3 -5.5,15.4 -4.5,14.1 -2.7,13.7 -1.4,14 0.4,14.1 2.3,15.5 4.1,16.8 6.4,18.7 8.6,21.3 10,23.7 11.4,25 12.2,25.9 12.3,25.9 12.8,25.5 11.8,24.5 10.4,23.2 9.6,20.4 8.2,19.2 6.8,17.2 5.9,15.5 5.4,15 5,13.6 4.1,13.7 4.6,13.2 -83.2,30.9 -83.2,30.4 -83.7,30 -84.1,29.6 -85,28.2 -85.5,27.2 -86.8,25.5 -88.2,23.6 -90,21.9 -90.9,19.5 -91.9,18.2 -93.2,16.8 -93.6,15.9 -94.6,15.5 -94.5,14.5 -95.1,14.1 -58.2,3.7 -57.7,3.1 -56.8,3.7 -55.9,3.2 -54.6,3.1 -52.7,3.2 -50,2.8 -47.8,2.7 -45,2.3 -42.3,2.2 -40.4,1.9 -39.6,1.8 -39.1,1.8 -39.1,1.8 -40,1.8 -41.4,1.9 -43.2,2.2 -45,1.8 -45.9,1.8 -46.3,1.9 -46.9,1.3 -46.4,1.4 -45.4,0.5 -43.7,0.4 -42.2,-0.4 -40.5,-0.5 -39.5,-1.4 -37.8,-1.8 -36.8,-1.8 -35.9,-1.8 -35.5,-2.3 -35,-2.3 -34.5,-2.2 -34.1,-2.3 -34.1,-2.3 -33.2,-3.2 -32.8,-3.2 -32.2,-4 -32.8,-4.6 -32.7,-4.1 -39.1,-5.4 -65,-7.3 -8.7,-0.9 -45,-5.5 -44.1,-5 -43.2,-5.9 -41.8,-5.9 -4.1,-0.9 c 0,-0.5 -90.9,0.5 -90.9,0.5 l -381.9,2.7 -87.3,0.9 c -3.6,0 -52.3,0.9 -52.3,0.9 l -142.3,2.3 -220,4.1 -456.5,9.1 c 0,0.4 -256.8,5.9 -256.8,5.9 l -364.2,7.7 -340.5,7.3 -182.8,4.1 -16.3,0.4 -22.8,0.5 -119.1,3.1 -157.7,3.7 -382.4,10 -407.3,9.5 c 0,0.5 -39.6,1.4 -39.6,1.4 l -381.9,9.6 -550.5,-1.4 -283.7,-0.9 -348.7,-0.5 -164.1,-0.4 -11.9,-0.5 h -9.5 l -21.4,0.5 h -125.4 l -688.4,1.8 -618.7,1.8 -576.5,1.8 -561,0.9 -325.06,1 -6.36,-21.9 -15.92,-51.8 -10.45,-34.6 -0.45,-2.2 -15.46,-64.6 2.72,-69.5 10.01,-66.9 12.73,-58.2 9.55,-45 20,-9.1 511,7.8 503.29,7.2 488.7,5 466,3.2 436.9,-0.4 399.2,-4.1 355,-9.6 302.8,-14.5 243.7,-21.4 191.4,-27.7 146.4,-33.2 109.6,-38.7 79.1,-43.6 56.8,-48.2 40.9,-52.7 33.2,-56.4 32.7,-60 31.4,-61.8 28.7,-62.8 26.3,-62.7 21.8,-60.5 18.2,-57.3 12.3,-52.7 6.4,-46.8 v -39.6 l -9.6,-33.2 -20.9,-27.3 -34.5,-21.8 -50.5,-17.3 -69.1,-13.6 -89.1,-10.4 -112.3,-7.8 -137.8,-5.4 -157.3,-4.1 -171.4,-2.3 -180,-0.4 -183.7,0.9 -180.9,2.2 -173.2,3.7 -159.6,5 -140.9,5.9 -125.5,7.7 -112.3,9.6 -103.2,11.3 -96.4,14.1 -93.2,16.8 -92.3,20 -95.5,23.2 -101.3,27.3 -106.4,30.5 -110.9,33.6 -114.6,35.9 -118.2,37.8 -121.4,39.5 -123.2,40.9 -124.6,41.4 -125.9,41.8 -126.4,41.9 -127.3,42.2 -127.75,42.8 -128.2,42.3 -128.67,42.7 -111.38,37.3 -17.73,5.9 -129.12,42.7 -101.38,34.1 -100.02,33.2 -95.93,32.7 -90.92,31.4 -83.65,29.5 -75.02,27.3 -63.65,24.6 -51.82,21.3 -36.83,17.8 -23.63,14.5 -10.47,11.4 1.82,8.2 13.64,5.9 25.01,2.7 40.01,7.3 23.64,9.5 29.1,15 c 0.45,0.5 18.63,21.4 18.63,21.4 l 34.1,40.5 1.82,2.2 20,27.3 27.28,35.9 12.73,14.6 33.64,37.7 20.01,20.9 19.09,20.5 11.82,15.4 1.36,1.9 12.28,18.6 12.73,19.5 15,21.9 17.28,24.1 2.73,3.6 -442.81,0.5 -538.29,0.9 -5.45,-0.9 -194.13,6.3 -120.48,4.6 -96.83,3.6 -85.47,2.7 -83.21,1.9 -11.81,0.4 -85.47,1.8 -86.38,2.3 -97.75,3.2 -30.92,2.3 -32.27,1.8 -33.64,1.3 -35.92,0.9 -37.28,1 -40.01,0.4 -41.83,0.5 -44.09,0.9 -46.83,0.4 -48.65,0.5 -50.46,0.9 -51.37,0.4 -51.83,1 -51.37,0.9 -51.38,0.4 -50.46,0.9 -48.65,0.9 -47.73,0.5 -46.83,0.4 -46.37,0.5 h -46.83 l -47.28,-0.5 -48.19,-0.4 -50.01,-1.4 -51.37,-1.3 -52.74,-2.3 -52.74,-2.3 -52.74,-2.3 -51.37,-2.7 -50.01,-2.7 -47.73,-2.7 -44.56,-2.3 -40.46,-2.3 -37.73,-2.3 -35.92,-2.2 -35.01,-2.3 -35.01,-2.7 -35.91,-3.2 -38.19,-3.7 -41.37,-4 -45.01,-5.5 -48.65,-5.5 -51.37,-6.3 -54.1,-6.8 -56.37,-7.3 -57.29,-7.3 -58.64,-7.7 -59.11,-7.8 -167.75,-47.2 -166.4,-47.3"
         style="fill:#efdb22;fill-opacity:1;fill-rule:nonzero;stroke:none"
         id="path40" />
      <path
         d="m 7999.88,8712.5 -28.64,67.8 -28.19,68.6 -27.73,70 -27.73,71.4 -27.28,73.2 -27.28,75.5 -26.36,77.7 -26.83,83.2 -27.73,91.8 -29.1,103.7 -31.37,118.2 -34.09,136.8 -37.28,157.8 -41.38,182.3 -46.37,209.6 -48.19,234.1 -47.74,254.2 -45,271.8 -39.56,285.5 -31.37,295.5 -20.91,302.8 -7.73,306 7.73,306 20.91,302.3 31.37,296 39.56,285 45,271.9 47.74,254.6 48.19,233.7 46.37,209.5 41.38,182.4 37.28,157.7 34.09,136.8 31.37,118.7 29.1,103.7 27.73,91.8 26.83,83.2 26.36,77.7 27.28,75.1 27.28,73.2 27.73,71.3 27.73,70 28.19,69.2 28.64,67.7 28.19,67.3 28.64,66.8 -55.01,-11.4 -57.74,-11.3 -62.73,-11.4 -70.47,-10.4 -80.93,-10.1 -93.65,-9.5 -109.11,-8.2 -127.3,-7.7 -147.75,-6.4 -165.49,-5 -180.04,-5 -191.39,-4.5 -199.59,-5 -204.58,-5 -206.86,-5.9 -205.94,-6.9 -202.31,-8.6 -196.41,-9.5 -190.48,-10.5 -183.22,-10.9 -175.04,-11.8 -165.03,-11.8 -154.57,-11.9 -142.75,-11.3 -130.03,-10.9 -118.66,-11 -109.11,-10 -101.38,-10 -94.57,-10 -90.01,-9.5 -86.38,-9.1 -85.47,-9.6 -42.29,-112.2 -41.82,-111 -41.83,-107.7 -40.92,-103.7 -40,-98.2 -38.64,-91.4 -36.83,-82.7 -35.46,-72.7 -33.64,-61.4 -31.37,-51.8 -30.47,-43.2 -28.63,-35.9 -28.19,-30.1 -27.73,-25.9 -26.83,-22.7 -26.82,-20.9 -27.28,-20.5 -27.28,-20 -27.28,-18.6 -27.73,-17.3 -27.28,-15.5 -27.72,-13.1 -27.74,-10.5 -27.28,-7.7 -27.73,-4.6 -26.83,-1.3 -26.82,1.3 -25.91,3.2 -25.46,5.5 -24.09,6.3 -23.19,8.2 -21.37,8.7 -20.01,9 -16.82,11.9 -12.72,17.7 -7.73,25.5 -1.36,36.3 6.81,49.1 15.46,65 25.46,83.2 37.28,104.1 46.82,122.3 55.47,137.8 62.74,150.9 68.19,161.4 72.29,169.1 75.47,174.2 76.83,176.8 -14.09,-16.8 -14.09,-17.3 -14.1,-16.8 -14.54,-16.8 -14.1,-17.3 -14.09,-16.8 -14.1,-16.8 -14.09,-17.3 -50.01,-70.5 -50.01,-71.8 -49.1,-75.5 -48.65,-79.5 -47.28,-86 -46.37,-93.6 -44.55,-102.8 -42.74,-113.2 -40.91,-125.5 -38.65,-136.8 -36.37,-147.3 -33.64,-156.8 -31.37,-165.1 -28.64,-173.2 -26.37,-179.6 -22.73,-185.5 -20.01,-190.4 -17.27,-195.1 -14.1,-198.2 -11.82,-201.9 -8.63,-203.6 -6.37,-206 -3.63,-206.8 -0.92,-207.8 0.92,-207.8 3.63,-207.3 6.37,-205.5 8.63,-204.1 11.82,-201.4 14.1,-198.7 17.27,-194.6 20.01,-190.4 22.73,-185.5 26.37,-180.1 28.64,-172.7 31.37,-165.5 33.64,-156.9 36.37,-146.8 38.65,-137.3 40.91,-125.5 42.74,-113.2 44.55,-102.7 46.37,-93.7 47.28,-85.5 48.65,-80 49.1,-75 50.01,-72.3 50.01,-70.4 14.09,-16.9 14.1,-17.2 14.09,-16.9 14.1,-16.8 14.54,-17.3 14.1,-16.8 14.09,-16.8 14.09,-17.3 -76.83,176.9 -75.47,174.6 -72.29,168.6 -68.19,161.4 -62.74,150.9 -55.47,137.8 -46.82,122.3 -37.28,104.1 -25.46,83.2 -15.46,65 -6.81,49.6 1.36,35.9 7.73,25.9 12.72,17.3 16.82,12.3 20.01,9 21.37,8.7 23.19,7.7 24.09,6.8 25.46,5 25.91,3.7 26.82,0.9 26.83,-1.4 27.73,-4.5 27.28,-7.8 27.74,-10.4 27.72,-13.2 27.28,-15.5 27.73,-17.2 27.28,-18.7 27.28,-20 27.28,-20.4 26.82,-20.9 26.83,-22.8 27.73,-25.4 28.19,-30.5 28.63,-35.9 30.47,-43.2 31.37,-51.4 33.64,-61.8 35.46,-72.7 36.83,-82.8 38.64,-90.9 40,-98.2 40.92,-103.7 41.83,-108.2 41.82,-110.9 42.29,-111.8 85.47,-9.6 86.38,-9.5 90.01,-9.6 94.57,-9.5 101.38,-10 109.11,-10.5 118.66,-10.4 130.03,-11.4 142.75,-11.4 154.57,-11.8 165.03,-11.8 175.04,-11.4 183.22,-11.4 190.48,-10.4 196.41,-9.6 202.31,-8.1 205.94,-7.3 206.86,-5.9 204.58,-5 199.59,-4.6 191.39,-5 180.04,-4.5 165.49,-5.5 147.75,-6.3 127.3,-7.3 109.11,-8.6 93.65,-9.1 80.93,-10.1 70.47,-10.9 62.73,-10.9 57.74,-11.3 55.01,-11.9 -28.64,67.3 -28.19,67.3"
         style="fill:#fcee21;fill-opacity:1;fill-rule:nonzero;stroke:none"
         id="path42" />
      <path
         d="m 4474.22,8004.7 -162.3,47.2 -156.85,47.8 -149.12,47.3 -140.03,47.7 -129.11,47.7 -115.93,47.8 -40.91,17.2 -35.47,14.6 -43.65,20.4 -5,2.8 -9.09,4.1 -25.46,12.7 -31.37,16.4 -5.45,2.7 -5.91,3.2 -7.73,4.5 -16.37,9.6 -20,10.9 -40.47,25.4 -13.63,9.1 -36.83,25.9 -33.18,25.1 -31.83,24 -34.1,22.3 -14.09,17.3 -14.09,16.8 -14.1,16.8 -14.54,17.3 -14.1,16.8 -14.09,16.9 -14.1,17.2 -14.09,16.9 -50.01,70.4 -50.01,72.3 -49.1,75 -48.65,80 -47.28,85.5 -46.37,93.7 -44.55,102.7 -42.74,113.2 -40.91,125.5 -38.65,137.3 -36.37,146.8 -33.64,156.9 -31.37,165.5 -28.64,172.7 -26.37,180.1 -22.73,185.5 -20.01,190.4 -17.27,194.6 -14.1,198.7 -11.82,201.4 -8.63,204.1 -6.37,205.5 -3.63,207.3 -0.92,207.8 0.92,207.8 3.63,206.8 6.37,206 8.63,203.6 11.82,201.9 14.1,198.2 17.27,195.1 20.01,190.4 22.73,185.5 26.37,179.6 28.64,173.2 31.37,165.1 33.64,156.8 36.37,147.3 38.65,136.8 40.91,125.5 42.74,113.2 44.55,102.8 46.37,93.6 47.28,86 48.65,79.5 49.1,75.5 50.01,71.8 50.01,70.5 14.09,17.3 14.1,16.8 14.09,16.8 14.1,17.3 14.54,16.8 14.1,16.8 14.09,17.3 14.09,16.8 34.1,22.8 31.83,24.1 33.18,25 36.83,25.9 13.63,8.6 40.47,25.9 20,10.9 16.37,9.6 7.73,4.1 5.91,3.2 5.45,3.1 31.37,16.4 25.46,12.3 9.09,4.1 5,2.7 43.65,20.5 35.47,15 40.91,16.8 28.18,11.8 6.37,2.3 81.38,34.1 129.11,47.7 140.03,47.3 149.12,47.7 156.85,47.3 162.3,47.3 166.4,47.3 167.75,47.2 -36.82,-6.8 -36.37,-6.8 -35.92,-6.8 -35.46,-6.4 -34.55,-6.3 -33.64,-6.4 -32.28,-5.9 -30.92,-5.9 -29.09,-5.5 -27.28,-5.4 -25.91,-5 -24.55,-5.9 -23.19,-5.9 -21.82,-6.9 -91.84,-30.9 -90.47,-30.4 -87.29,-30.1 -45.46,-16.3 -38.19,-13.2 -78.2,-28.6 -15.91,-6 c -0.46,0 -20.46,-6.8 -20.46,-6.8 l -74.1,-25 -25.01,-9.1 -60.01,-21.3 -76.37,-29.1 -84.12,-35 -76.37,-35.1 -66.37,-35 -56.84,-34.1 -13.64,-9.1 -32.73,-22.7 -12.27,-8.6 -5.46,-3.7 c -0.91,-0.4 -32.74,-20.4 -32.74,-20.4 l -45.46,-29.6 -45.91,-30.9 -45.47,-33.6 -44.1,-35.9 -43.64,-39.6 -42.74,-42.7 -3.63,-3.7 -47.74,-51.8 -43.19,-52.7 -21.82,-25 -34.1,-43.2 -39.1,-53.2 -23.18,-32.7 -30.47,-46.4 -30.91,-54.1 -10,-20 -21.37,-43.7 -5,-10.9 -26.82,-63.6 -31.83,-86.4 -30.91,-96.8 -6.37,-21.9 -32.28,-116.8 -17.27,-62.3 -28.64,-105.5 -32.73,-127.7 -30.46,-128.2 -27.74,-132.8 -6.82,-33.6 -23.64,-129.6 -22.73,-140 -21.82,-150.5 -20.91,-155.9 -19.55,-157.8 -17.74,-156.8 -15.45,-152.8 -12.28,-148.2 -9.09,-141.9 -5,-97.2 -8.18,-165.1 -6.37,-172.3 -9.09,-409.6 6.36,-272.3 2.73,-137.8 6.37,-171.8 8.18,-165.5 5,-97.3 9.09,-141.9 12.28,-147.7 15.45,-153.2 17.74,-156.4 19.55,-157.8 20.91,-156.4 21.82,-150 22.73,-140.5 23.64,-129.1 6.82,-34.1 27.74,-132.7 30.46,-128.2 32.73,-127.8 28.64,-105.5 17.27,-61.8 32.28,-116.8 6.37,-21.9 30.91,-96.8 31.83,-86.4 10.45,-24.5 5,-11.4 11.37,-28.2 5,-10.4 12.73,-26.4 8.64,-17.3 10,-20.4 30.91,-54.1 30.47,-46.4 23.18,-32.7 39.1,-53.2 34.1,-42.8 21.82,-25 43.19,-53.2 47.74,-51.3 3.63,-3.7 42.74,-43.2 43.64,-39.5 44.1,-35.9 45.47,-33.2 45.91,-31.4 45.46,-29.1 31.83,-20.4 c 0.91,-0.5 6.37,-4.1 6.37,-4.1 l 45,-31.4 13.64,-9.1 56.84,-34.1 66.37,-35 76.37,-35 6.37,-2.7 40.01,-16.4 37.74,-15.9 76.37,-29.1 60.01,-21.4 25.01,-8.6 74.1,-25.5 25.46,-8.6 10.91,-4.1 78.2,-28.6 83.65,-29.1 87.29,-30 90.47,-31 91.84,-30.4 21.82,-6.9 23.19,-6.3 24.55,-5.5 25.91,-5.4 27.28,-5.5 29.09,-5.4 30.92,-5.5 32.28,-5.9 33.64,-6.4 34.55,-6.3 35.46,-6.8 35.92,-6.9 36.37,-6.8 36.82,-6.8 -167.75,47.3 -166.4,47.3"
         style="fill:#333333;fill-opacity:1;fill-rule:nonzero;stroke:none"
         id="path44" />
      <path
         d="m 3588.6,9091.2 -41.83,108.2 -40.92,103.7 -40,98.2 -38.64,90.9 -36.83,82.8 -35.46,72.7 -33.64,61.8 -31.37,51.4 -30.47,43.2 -28.63,35.9 -28.19,30.5 -27.73,25.4 -26.83,22.8 -26.82,20.9 -27.28,20.4 -27.28,20 -27.28,18.7 -27.73,17.2 -27.28,15.5 -27.72,13.2 -27.74,10.4 -27.28,7.8 -27.73,4.5 -26.83,1.4 -26.82,-0.9 -25.91,-3.7 -25.46,-5 -24.09,-6.8 -23.19,-7.7 -21.37,-8.7 -20.01,-9 -16.82,-12.3 -12.72,-17.3 -7.73,-25.9 -1.36,-35.9 6.81,-49.6 15.46,-65 25.46,-83.2 37.28,-104.1 46.82,-122.3 55.47,-137.8 62.74,-150.9 68.19,-161.4 72.29,-168.6 75.47,-174.6 76.83,-176.9 27.74,-12.7 28.18,-12.7 27.74,-13.2 28.63,-13.2 28.65,-13.2 29.55,-13.6 29.55,-14.1 30.92,-14.1 31.37,-14.6 31.82,-14.5 31.83,-14.1 31.36,-13.6 30.46,-11.9 29.55,-10.9 27.74,-8.6 25.46,-5.9 23.64,-3.7 20.91,-0.9 18.64,0.9 16.37,2.8 15,4.5 12.73,5.5 10.91,5.9 9.54,6.8 8.19,7.3 6.82,7.2 5.45,7.8 4.1,8.6 2.72,9.6 1.82,10.4 0.46,11.4 v 13.2 l -1.37,14.5 -2.27,16.4 -3.18,17.7 -4.55,19.6 -5.45,21.3 -6.37,23.2 -7.27,25 -9.1,26.8 -9.55,29.1 -11.36,30.5 -11.81,32.3 -12.28,33.2 -13.19,34.5 -13.64,35 -14.09,35.9 -14.09,36 -42.29,111.8 -41.82,110.9"
         style="fill:#ffffff;fill-opacity:1;fill-rule:nonzero;stroke:none"
         id="path46" />
      <path
         d="m 3032.13,15607.4 -72.29,-169.1 -68.19,-161.4 -62.74,-150.9 -55.47,-137.8 -46.82,-122.3 -37.28,-104.1 -25.46,-83.2 -15.46,-65 -6.81,-49.1 1.36,-36.3 7.73,-25.5 12.72,-17.7 16.82,-11.9 20.01,-9 21.37,-8.7 23.19,-8.2 24.09,-6.3 25.46,-5.5 25.91,-3.2 26.82,-1.3 26.83,1.3 27.73,4.6 27.28,7.7 27.74,10.5 27.72,13.1 27.28,15.5 27.73,17.3 27.28,18.6 27.28,20 27.28,20.5 26.82,20.9 26.83,22.7 27.73,25.9 28.19,30.1 28.63,35.9 30.47,43.2 31.37,51.8 33.64,61.4 35.46,72.7 36.83,82.7 38.64,91.4 40,98.2 40.92,103.7 41.83,107.7 41.82,111 42.29,112.2 14.09,36 14.09,35.4 13.64,35 13.19,34.6 12.28,33.6 11.81,31.8 11.36,31 9.55,28.6 9.1,27.3 7.27,25 6.37,23.2 5.45,20.9 4.55,19.5 3.18,18.2 2.27,15.9 1.37,14.6 v 13.2 l -0.46,11.8 -1.82,10.4 -2.72,9.1 -4.1,8.7 -5.45,7.7 -6.82,7.7 -8.19,6.9 -9.54,6.8 -10.91,6.3 -12.73,5.5 -15,4.1 -16.37,2.7 -18.64,1.4 -20.91,-1.4 -23.64,-3.2 -25.46,-6.3 -27.74,-8.7 -29.55,-10.4 -30.46,-12.3 -31.36,-13.2 -31.83,-14.5 -31.82,-14.6 -31.37,-14.5 -30.92,-14.1 -29.55,-13.7 -29.55,-13.6 -28.65,-13.6 -28.63,-13.2 -27.74,-12.8 -28.18,-13.1 -27.74,-12.8 -76.83,-176.8 -75.47,-174.2"
         style="fill:#ffffff;fill-opacity:1;fill-rule:nonzero;stroke:none"
         id="path48" />
      <path
         d="m 14227.9,15906.1 c 61.7,-141.4 120.4,-289.1 206.2,-418 45.8,-68.7 98.5,-118.3 177.8,-144.3 73,-23.9 151.1,-32.1 227.4,-38.2 326,-26.1 653.9,-31.6 980.8,-39.1 324,-7.4 648.1,-11.9 972.2,-12.6 321.6,-0.6 643.5,1.1 964.8,16.8 158,7.8 319.3,14.7 474.7,46.2 74.7,15.2 157.8,37.4 209.1,97.8 48.8,57.4 75.9,138.4 100.4,208.6 24.1,68.6 44.9,139.4 58.1,211 12.9,70.5 23.1,160.8 -38.2,212.6 -57.8,48.7 -156,51 -228.1,59.6 -72.4,8.5 -145,15 -217.7,20.2 -335.2,24 -3593,69.3 -3683.5,55.7 -68.7,-10.2 -161.2,-25.1 -213.9,-74.5 -61.9,-58 -18.3,-138.8 9.9,-201.8"
         style="fill:#333333;fill-opacity:1;fill-rule:nonzero;stroke:none"
         id="path50" />
    </g>
  </g>
</svg>
