<svg width="3785" height="3782" xmlns="http://www.w3.org/2000/svg" xmlns:xlink="http://www.w3.org/1999/xlink" overflow="hidden"><defs><clipPath id="clip0"><rect x="-1" y="-1" width="3785" height="3782"/></clipPath></defs><g clip-path="url(#clip0)" transform="translate(1 1)"><rect x="2660" y="1134" width="1119" height="1512" fill="#938D8D"/><rect x="2660.5" y="1134.5" width="174" height="1512" stroke="#3B3838" stroke-width="1.33333" stroke-miterlimit="8" fill="#767171"/><rect x="2835" y="2457" width="189" height="189" stroke="#3B3838" stroke-width="8" stroke-miterlimit="8" fill="none"/><rect x="3024" y="2457" width="189" height="189" stroke="#3B3838" stroke-width="8" stroke-miterlimit="8" fill="none"/><rect x="3213" y="2457" width="189" height="189" stroke="#3B3838" stroke-width="8" stroke-miterlimit="8" fill="none"/><rect x="3402" y="2457" width="189" height="189" stroke="#3B3838" stroke-width="8" stroke-miterlimit="8" fill="none"/><rect x="3591" y="2457" width="188" height="189" stroke="#3B3838" stroke-width="8" stroke-miterlimit="8" fill="none"/><rect x="3685" y="2268" width="94" height="189" stroke="#3B3838" stroke-width="8" stroke-miterlimit="8" fill="none"/><rect x="2835" y="2268" width="94" height="189" stroke="#3B3838" stroke-width="8" stroke-miterlimit="8" fill="none"/><rect x="2929" y="2268" width="189" height="189" stroke="#3B3838" stroke-width="8" stroke-miterlimit="8" fill="none"/><rect x="3118" y="2268" width="189" height="189" stroke="#3B3838" stroke-width="8" stroke-miterlimit="8" fill="none"/><rect x="3307" y="2268" width="189" height="189" stroke="#3B3838" stroke-width="8" stroke-miterlimit="8" fill="none"/><rect x="3496" y="2268" width="189" height="189" stroke="#3B3838" stroke-width="8" stroke-miterlimit="8" fill="none"/><rect x="2835" y="2079" width="189" height="189" stroke="#3B3838" stroke-width="8" stroke-miterlimit="8" fill="none"/><rect x="3024" y="2079" width="189" height="189" stroke="#3B3838" stroke-width="8" stroke-miterlimit="8" fill="none"/><rect x="3213" y="2079" width="189" height="189" stroke="#3B3838" stroke-width="8" stroke-miterlimit="8" fill="none"/><rect x="3402" y="2079" width="189" height="189" stroke="#3B3838" stroke-width="8" stroke-miterlimit="8" fill="none"/><rect x="3591" y="2079" width="189" height="189" stroke="#3B3838" stroke-width="8" stroke-miterlimit="8" fill="none"/><rect x="3685" y="1890" width="95" height="189" stroke="#3B3838" stroke-width="8" stroke-miterlimit="8" fill="none"/><rect x="2835" y="1890" width="94" height="189" stroke="#3B3838" stroke-width="8" stroke-miterlimit="8" fill="none"/><rect x="2929" y="1890" width="189" height="189" stroke="#3B3838" stroke-width="8" stroke-miterlimit="8" fill="none"/><rect x="3118" y="1890" width="189" height="189" stroke="#3B3838" stroke-width="8" stroke-miterlimit="8" fill="none"/><rect x="3307" y="1890" width="189" height="189" stroke="#3B3838" stroke-width="8" stroke-miterlimit="8" fill="none"/><rect x="3496" y="1890" width="189" height="189" stroke="#3B3838" stroke-width="8" stroke-miterlimit="8" fill="none"/><rect x="2835" y="1701" width="189" height="189" stroke="#3B3838" stroke-width="8" stroke-miterlimit="8" fill="none"/><rect x="3024" y="1701" width="189" height="189" stroke="#3B3838" stroke-width="8" stroke-miterlimit="8" fill="none"/><rect x="3213" y="1701" width="189" height="189" stroke="#3B3838" stroke-width="8" stroke-miterlimit="8" fill="none"/><rect x="3402" y="1701" width="189" height="189" stroke="#3B3838" stroke-width="8" stroke-miterlimit="8" fill="none"/><rect x="3591" y="1701" width="189" height="189" stroke="#3B3838" stroke-width="8" stroke-miterlimit="8" fill="none"/><rect x="3685" y="1512" width="95" height="189" stroke="#3B3838" stroke-width="8" stroke-miterlimit="8" fill="none"/><rect x="2835" y="1512" width="94" height="189" stroke="#3B3838" stroke-width="8" stroke-miterlimit="8" fill="none"/><rect x="2929" y="1512" width="189" height="189" stroke="#3B3838" stroke-width="8" stroke-miterlimit="8" fill="none"/><rect x="3118" y="1512" width="189" height="189" stroke="#3B3838" stroke-width="8" stroke-miterlimit="8" fill="none"/><rect x="3307" y="1512" width="189" height="189" stroke="#3B3838" stroke-width="8" stroke-miterlimit="8" fill="none"/><rect x="3496" y="1512" width="189" height="189" stroke="#3B3838" stroke-width="8" stroke-miterlimit="8" fill="none"/><rect x="2835" y="1323" width="189" height="189" stroke="#3B3838" stroke-width="8" stroke-miterlimit="8" fill="none"/><rect x="3024" y="1323" width="189" height="189" stroke="#3B3838" stroke-width="8" stroke-miterlimit="8" fill="none"/><rect x="3213" y="1323" width="189" height="189" stroke="#3B3838" stroke-width="8" stroke-miterlimit="8" fill="none"/><rect x="3402" y="1323" width="188" height="189" stroke="#3B3838" stroke-width="8" stroke-miterlimit="8" fill="none"/><rect x="3590" y="1323" width="189" height="189" stroke="#3B3838" stroke-width="8" stroke-miterlimit="8" fill="none"/><rect x="3685" y="1134" width="94" height="189" stroke="#3B3838" stroke-width="8" stroke-miterlimit="8" fill="none"/><rect x="2835" y="1134" width="94" height="189" stroke="#3B3838" stroke-width="8" stroke-miterlimit="8" fill="none"/><rect x="2929" y="1134" width="189" height="189" stroke="#3B3838" stroke-width="8" stroke-miterlimit="8" fill="none"/><rect x="3118" y="1134" width="189" height="189" stroke="#3B3838" stroke-width="8" stroke-miterlimit="8" fill="none"/><rect x="3307" y="1134" width="189" height="189" stroke="#3B3838" stroke-width="8" stroke-miterlimit="8" fill="none"/><rect x="3496" y="1134" width="189" height="189" stroke="#3B3838" stroke-width="8" stroke-miterlimit="8" fill="none"/><path d="M2660 2343 2834.31 2343" stroke="#3B3838" stroke-width="8" stroke-miterlimit="8" fill="none" fill-rule="evenodd"/><path d="M2660 2041 2834.31 2041" stroke="#3B3838" stroke-width="8" stroke-miterlimit="8" fill="none" fill-rule="evenodd"/><path d="M2659 1739 2833.31 1739" stroke="#3B3838" stroke-width="8" stroke-miterlimit="8" fill="none" fill-rule="evenodd"/><path d="M2659 1436 2833.31 1436" stroke="#3B3838" stroke-width="8" stroke-miterlimit="8" fill="none" fill-rule="evenodd"/><rect x="0.5" y="0.500105" width="3780" height="3779" stroke="#000000" stroke-width="1.33333" stroke-miterlimit="8" fill="none"/></g></svg>