<svg width="3782" height="3782" xmlns="http://www.w3.org/2000/svg" xmlns:xlink="http://www.w3.org/1999/xlink" overflow="hidden"><defs><clipPath id="clip0"><rect x="-1" y="-1" width="3782" height="3782"/></clipPath></defs><g clip-path="url(#clip0)" transform="translate(1 1)"><rect x="0.5" y="0.500105" width="3780" height="3779" stroke="#000000" stroke-width="1.33333" stroke-miterlimit="8" fill="none"/><rect x="2821.5" y="1182.5" width="253" height="61" stroke="#000000" stroke-width="1.33333" stroke-miterlimit="8" fill="#FFFFFF"/><rect x="2821.5" y="1295.5" width="253" height="61" stroke="#000000" stroke-width="1.33333" stroke-miterlimit="8" fill="#FFFFFF"/><rect x="2821.5" y="1408.5" width="253" height="61" stroke="#000000" stroke-width="1.33333" stroke-miterlimit="8" fill="#FFFFFF"/><rect x="2821.5" y="1521.5" width="253" height="60" stroke="#000000" stroke-width="1.33333" stroke-miterlimit="8" fill="#FFFFFF"/><rect x="2821.5" y="1633.5" width="253" height="61" stroke="#000000" stroke-width="1.33333" stroke-miterlimit="8" fill="#FFFFFF"/><rect x="2821.5" y="1746.5" width="253" height="61" stroke="#000000" stroke-width="1.33333" stroke-miterlimit="8" fill="#FFFFFF"/><rect x="2821.5" y="1859.5" width="253" height="61" stroke="#000000" stroke-width="1.33333" stroke-miterlimit="8" fill="#FFFFFF"/><rect x="2821.5" y="1972.5" width="253" height="61" stroke="#000000" stroke-width="1.33333" stroke-miterlimit="8" fill="#FFFFFF"/><rect x="2821.5" y="2085.5" width="253" height="60" stroke="#000000" stroke-width="1.33333" stroke-miterlimit="8" fill="#FFFFFF"/><rect x="2821.5" y="2197.5" width="253" height="61" stroke="#000000" stroke-width="1.33333" stroke-miterlimit="8" fill="#FFFFFF"/><rect x="2821.5" y="2310.5" width="253" height="61" stroke="#000000" stroke-width="1.33333" stroke-miterlimit="8" fill="#FFFFFF"/><rect x="2821.5" y="2423.5" width="253" height="61" stroke="#000000" stroke-width="1.33333" stroke-miterlimit="8" fill="#FFFFFF"/><rect x="2821.5" y="2536.5" width="253" height="60" stroke="#000000" stroke-width="1.33333" stroke-miterlimit="8" fill="#FFFFFF"/></g></svg>