<svg width="3782" height="3782" xmlns="http://www.w3.org/2000/svg" xmlns:xlink="http://www.w3.org/1999/xlink" overflow="hidden"><defs><clipPath id="clip0"><rect x="-1" y="-1" width="3782" height="3782"/></clipPath></defs><g clip-path="url(#clip0)" transform="translate(1 1)"><rect x="0" y="0" width="3779" height="3780" stroke="#000000" stroke-width="1.33333" stroke-miterlimit="8" fill="none" transform="matrix(-6.12323e-17 -1 -1 6.12323e-17 3780.5 3779.5)"/><path d="M0 86.5C-1.10126e-14 38.7274 38.7274-1.10126e-14 86.5-2.20252e-14 134.273-4.40504e-14 173 38.7274 173 86.5 173 134.273 134.273 173 86.5 173 38.7274 173-5.5063e-14 134.273 0 86.5Z" stroke="#000000" stroke-width="4" stroke-miterlimit="8" fill="#FFC000" fill-rule="evenodd" transform="matrix(1 -1.22465e-16 -1.22465e-16 -1 2947 2818)"/><path d="M0 58.5903 1180.23 58.5903 1180.23 0 1335 86.5007 1180.23 173 1180.23 114.41 0 114.41Z" stroke="#000000" stroke-width="4" stroke-miterlimit="8" fill="#FFF2CC" fill-rule="evenodd" transform="matrix(-6.12323e-17 -1 -1 6.12323e-17 3120 2536)"/></g></svg>