<svg width="3782" height="3782" xmlns="http://www.w3.org/2000/svg" xmlns:xlink="http://www.w3.org/1999/xlink" overflow="hidden"><defs><clipPath id="clip0"><rect x="-1" y="-1" width="3782" height="3782"/></clipPath></defs><g clip-path="url(#clip0)" transform="translate(1 1)"><rect x="0.5" y="0.500105" width="3780" height="3779" stroke="#000000" stroke-width="1.33333" stroke-miterlimit="8" fill="none"/><path d="M0 93.5C-1.19038e-14 41.8614 41.8614-1.19038e-14 93.5-2.38076e-14 145.139-4.76152e-14 187 41.8614 187 93.5 187 145.139 145.139 187 93.5 187 41.8614 187-5.9519e-14 145.139 0 93.5Z" stroke="#000000" stroke-width="4" stroke-miterlimit="8" fill="#FFD966" fill-rule="evenodd" transform="matrix(1 -1.22465e-16 -1.22465e-16 -1 2854 2856)"/><path d="M2854 1016.5C2854 964.861 2895.86 923 2947.5 923 2999.14 923 3041 964.861 3041 1016.5 3041 1068.14 2999.14 1110 2947.5 1110 2895.86 1110 2854 1068.14 2854 1016.5Z" stroke="#000000" stroke-width="4" stroke-miterlimit="8" fill="#FFD966" fill-rule="evenodd"/><path d="M2947.5 2571 2872 2433.22 2920.43 2433.22 2920.43 1346.78 2872 1346.78 2947.5 1209 3023 1346.78 2974.57 1346.78 2974.57 2433.22 3023 2433.22Z" stroke="#00B0F0" stroke-width="8" stroke-miterlimit="8" stroke-dasharray="32 24" fill="#FFFAEB" fill-rule="evenodd"/></g></svg>