<svg width="3782" height="3782" xmlns="http://www.w3.org/2000/svg" xmlns:xlink="http://www.w3.org/1999/xlink" overflow="hidden"><defs><clipPath id="clip0"><rect x="-1" y="-1" width="3782" height="3782"/></clipPath></defs><g clip-path="url(#clip0)" transform="translate(1 1)"><rect x="0" y="0" width="3779" height="3780" stroke="#000000" stroke-width="1.33333" stroke-miterlimit="8" fill="none" transform="matrix(-6.12323e-17 -1 -1 6.12323e-17 3780.5 3779.5)"/><path d="M2776 1006.5C2776 958.727 2814.5 920 2862 920 2909.5 920 2948 958.727 2948 1006.5 2948 1054.27 2909.5 1093 2862 1093 2814.5 1093 2776 1054.27 2776 1006.5Z" stroke="#000000" stroke-width="4" stroke-miterlimit="8" fill="#FFC000" fill-rule="evenodd"/><path d="M2889.75 1201 2889.75 2382.13 2948 2382.13 2862 2536 2776 2382.13 2834.25 2382.13 2834.25 1201Z" stroke="#000000" stroke-width="4" stroke-miterlimit="8" fill="#FFF2CC" fill-rule="evenodd"/></g></svg>