<svg width="3782" height="3782" xmlns="http://www.w3.org/2000/svg" xmlns:xlink="http://www.w3.org/1999/xlink" overflow="hidden"><defs><clipPath id="clip0"><rect x="-1" y="-1" width="3782" height="3782"/></clipPath></defs><g clip-path="url(#clip0)" transform="translate(1 1)"><rect x="0" y="0" width="3779" height="3780" stroke="#000000" stroke-width="1.33333" stroke-miterlimit="8" fill="none" transform="matrix(-6.12323e-17 -1 -1 6.12323e-17 3780.5 3779.5)"/><path d="M0 86.5C-1.10126e-14 38.7274 38.7274-1.10126e-14 86.5-2.20252e-14 134.273-4.40504e-14 173 38.7274 173 86.5 173 134.273 134.273 173 86.5 173 38.7274 173-5.5063e-14 134.273 0 86.5Z" stroke="#000000" stroke-width="4" stroke-miterlimit="8" fill="#FFC000" fill-rule="evenodd" transform="matrix(1 -1.22465e-16 -1.22465e-16 -1 2861 2818)"/><path d="M2947.5 1201 3034 1358.17 2973.09 1358.17 2973.09 2378.83 3034 2378.83 2947.5 2536 2861 2378.83 2921.91 2378.83 2921.91 1358.17 2861 1358.17Z" stroke="#FFFF00" stroke-width="8" stroke-miterlimit="8" stroke-dasharray="32 24" fill="#FFF9E7" fill-rule="evenodd"/><path d="M0 86.5C-1.09489e-14 38.7274 38.5035-1.10126e-14 86-2.20252e-14 133.496-4.40504e-14 172 38.7274 172 86.5 172 134.273 133.496 173 86 173 38.5035 173-5.47447e-14 134.273 0 86.5Z" stroke="#000000" stroke-width="4" stroke-miterlimit="8" fill="#FFC000" fill-rule="evenodd" transform="matrix(1 -1.22465e-16 -1.22465e-16 -1 2861 1093)"/></g></svg>