<svg width="3782" height="3782" xmlns="http://www.w3.org/2000/svg" xmlns:xlink="http://www.w3.org/1999/xlink" overflow="hidden"><defs><clipPath id="clip0"><rect x="-1" y="-1" width="3782" height="3782"/></clipPath></defs><g clip-path="url(#clip0)" transform="translate(1 1)"><rect x="0.5" y="0.500105" width="3780" height="3779" stroke="#000000" stroke-width="1.33333" stroke-miterlimit="8" fill="none"/><path d="M0 93.5C-1.19038e-14 41.8614 41.8614-1.19038e-14 93.5-2.38076e-14 145.139-4.76152e-14 187 41.8614 187 93.5 187 145.139 145.139 187 93.5 187 41.8614 187-5.9519e-14 145.139 0 93.5Z" stroke="#000000" stroke-width="4" stroke-miterlimit="8" fill="#FFD966" fill-rule="evenodd" transform="matrix(1 -1.22465e-16 -1.22465e-16 -1 2854 2856)"/><path d="M0 1224.76 50.6551 1224.76 50.6551 0 100.297 0 100.297 1224.76 150.952 1224.76 75.4762 1362Z" stroke="#000000" stroke-width="4" stroke-miterlimit="8" fill="#FFF2CC" fill-rule="evenodd" transform="matrix(1 -1.22465e-16 -1.22465e-16 -1 2872 2571)"/></g></svg>